<svg width="26" height="26" fill="none" xmlns="http://www.w3.org/2000/svg"><path fill-rule="evenodd" clip-rule="evenodd" d="M13 0C5.82 0 0 5.82 0 13s5.82 13 13 13 13-5.82 13-13S20.18 0 13 0zm1.059 17.104c-.129.135-.379.162-.379.162h-.829s-1.828.108-3.439-1.538c-1.757-1.795-3.308-5.357-3.308-5.357s-.09-.234.008-.347c.109-.127.407-.135.407-.135l1.98-.012s.187.03.32.126a.61.61 0 01.173.228s.32.795.744 1.514c.828 1.404 1.213 1.711 1.494 1.56.41-.218.287-1.984.287-1.984s.008-.64-.206-.926c-.165-.22-.477-.285-.615-.303-.112-.015.071-.27.308-.383.357-.171.987-.181 1.73-.174.58.006.747.041.974.095.526.125.51.524.474 1.385-.01.258-.023.557-.023.902 0 .078-.002.16-.005.245-.012.442-.026.947.27 1.135.152.096.523.014 1.451-1.533.44-.734.77-1.596.77-1.596s.073-.154.185-.22c.114-.067.269-.046.269-.046l2.085-.013s.627-.074.727.205c.107.29-.233.97-1.085 2.085-.808 1.058-1.202 1.447-1.166 1.791.027.252.282.48.773.926 1.024.933 1.299 1.424 1.364 1.542l.013.022c.459.748-.51.806-.51.806l-1.852.026s-.397.077-.92-.276c-.275-.185-.543-.486-.798-.774-.39-.438-.75-.844-1.058-.748-.516.161-.5 1.252-.5 1.252s.004.234-.114.358z" fill="#fff"/></svg>