<svg width="19" height="23" fill="none" xmlns="http://www.w3.org/2000/svg"><path d="M8.534 2.5c-1.78 0-2.686.19-3.52.636a3.885 3.885 0 00-1.628 1.629c-.446.832-.636 1.739-.636 3.518v6.432c0 1.78.19 2.686.636 3.52.379.708.92 1.25 1.629 1.628.832.446 1.739.636 3.519.636h1.932c1.78 0 2.686-.19 3.52-.636a3.885 3.885 0 001.628-1.629c.446-.832.636-1.739.636-3.519V8.283c0-1.78-.19-2.686-.636-3.52a3.885 3.885 0 00-1.629-1.628c-.832-.445-1.739-.635-3.518-.635H8.534zm0-2.25h1.932c2.266 0 3.481.313 4.581.901A6.134 6.134 0 0117.6 3.703c.588 1.1.901 2.315.901 4.58v6.433c0 2.266-.313 3.481-.901 4.581a6.134 6.134 0 01-2.552 2.552c-1.1.588-2.315.901-4.58.901H8.532c-2.266 0-3.481-.313-4.582-.901a6.134 6.134 0 01-2.55-2.552c-.587-1.1-.9-2.315-.9-4.58V8.282c0-2.266.313-3.481.901-4.582a6.133 6.133 0 012.553-2.55c1.099-.587 2.314-.9 4.58-.9zm-.159 4.5h2.25v5.625h-2.25V4.75z" fill="#CACACA"/></svg>